<?xml version="1.0" encoding="UTF-8" standalone="no"?>
<!-- Created with Inkscape (http://www.inkscape.org/) -->

<svg
   width="100"
   height="100"
   viewBox="0 0 26.458333 26.458333"
   version="1.1"
   id="svg1"
   inkscape:version="1.3.2 (091e20e, 2023-11-25, custom)"
   sodipodi:docname="favicon.svg"
   xmlns:inkscape="http://www.inkscape.org/namespaces/inkscape"
   xmlns:sodipodi="http://sodipodi.sourceforge.net/DTD/sodipodi-0.dtd"
   xmlns="http://www.w3.org/2000/svg"
   xmlns:svg="http://www.w3.org/2000/svg">
  <sodipodi:namedview
     id="namedview1"
     pagecolor="#ffffff"
     bordercolor="#000000"
     borderopacity="0.25"
     inkscape:showpageshadow="2"
     inkscape:pageopacity="0.0"
     inkscape:pagecheckerboard="0"
     inkscape:deskcolor="#d1d1d1"
     inkscape:document-units="mm"
     inkscape:zoom="5.6568543"
     inkscape:cx="42.77996"
     inkscape:cy="35.620504"
     inkscape:window-width="1920"
     inkscape:window-height="974"
     inkscape:window-x="-11"
     inkscape:window-y="-11"
     inkscape:window-maximized="1"
     inkscape:current-layer="layer1" />
  <defs
     id="defs1" />
  <g
     inkscape:label="Layer 1"
     inkscape:groupmode="layer"
     id="layer1">
    <path
       id="path2"
       style="fill:#00919e;fill-opacity:1;stroke-width:0.264583"
       d="M 13.229167 0 A 13.229167 13.229167 0 0 0 0 13.229167 A 13.229167 13.229167 0 0 0 13.229167 26.458333 A 13.229167 13.229167 0 0 0 26.458333 13.229167 A 13.229167 13.229167 0 0 0 13.229167 0 z M 3.8777995 6.961849 C 4.2471126 6.961849 4.5447706 7.0858731 4.7707682 7.3339193 C 5.002278 7.5764533 5.1180339 7.9485258 5.1180339 8.4501302 L 5.1180339 12.7 L 9.9384115 7.6729167 C 10.169921 7.4303827 10.365604 7.2512366 10.525456 7.1354818 C 10.69082 7.0197269 10.908551 6.961849 11.178646 6.961849 C 11.531423 6.961849 11.8153 7.0665805 12.030273 7.2760417 C 12.250759 7.4799907 12.361003 7.7307952 12.361003 8.0284505 C 12.361003 8.3867394 12.176344 8.7422754 11.807031 9.0950521 L 8.8222005 11.922786 L 12.261784 16.850651 C 12.504318 17.192403 12.68622 17.492818 12.807487 17.751888 C 12.928754 18.005446 12.989388 18.253495 12.989388 18.496029 C 12.989388 18.766123 12.8819 19.000391 12.666927 19.198828 C 12.457466 19.397265 12.170832 19.496484 11.807031 19.496484 C 11.465279 19.496484 11.186913 19.424826 10.97194 19.28151 C 10.756967 19.132683 10.575065 18.937 10.426237 18.694466 C 10.277409 18.451932 10.145117 18.231445 10.029362 18.033008 L 7.1272135 13.568164 L 5.1180339 15.494661 L 5.1180339 17.999935 C 5.1180339 18.507051 5.002278 18.884636 4.7707682 19.132682 C 4.5392585 19.375216 4.2416005 19.496484 3.8777995 19.496484 C 3.6683383 19.496484 3.4671435 19.441363 3.2742187 19.33112 C 3.081294 19.220877 2.932465 19.072048 2.8277344 18.884635 C 2.7505645 18.730296 2.7037109 18.55115 2.6871745 18.347201 C 2.6706381 18.143251 2.6623698 17.84835 2.6623698 17.4625 L 2.6623698 8.4501302 C 2.6623698 7.9540379 2.7698574 7.5819654 2.9848307 7.3339193 C 3.2053162 7.0858731 3.5029742 6.961849 3.8777995 6.961849 z M 16.346289 6.961849 C 16.715602 6.961849 17.01326 7.0858731 17.239258 7.3339193 C 17.470768 7.5764533 17.586523 7.9485258 17.586523 8.4501302 L 17.586523 17.272331 L 22.563997 17.272331 C 22.960871 17.272331 23.264041 17.368794 23.473503 17.561719 C 23.688476 17.754644 23.795964 17.99718 23.795964 18.289323 C 23.795964 18.586978 23.691232 18.829514 23.481771 19.016927 C 23.27231 19.198828 22.966383 19.289779 22.563997 19.289779 L 16.635677 19.289779 C 16.101 19.289779 15.715147 19.171267 15.478125 18.934245 C 15.246615 18.697223 15.130859 18.314126 15.130859 17.784961 L 15.130859 8.4501302 C 15.130859 7.9540379 15.241103 7.5819654 15.461589 7.3339193 C 15.687586 7.0858731 15.982488 6.961849 16.346289 6.961849 z " />
  </g>
</svg>
